<mxfile host="app.diagrams.net" modified="2024-05-13T14:36:15.766Z" agent="Mozilla/5.0 (Windows NT 10.0; Win64; x64) AppleWebKit/537.36 (KHTML, like Gecko) Chrome/124.0.0.0 Safari/537.36" etag="QOuxFk5lAamiVayqBEJr" version="24.4.0" type="device">
  <diagram id="C5RBs43oDa-KdzZeNtuy" name="Page-1">
    <mxGraphModel dx="652" dy="1490" grid="1" gridSize="9" guides="1" tooltips="1" connect="1" arrows="1" fold="1" page="1" pageScale="1" pageWidth="827" pageHeight="1169" math="0" shadow="0">
      <root>
        <mxCell id="WIyWlLk6GJQsqaUBKTNV-0" />
        <mxCell id="WIyWlLk6GJQsqaUBKTNV-1" parent="WIyWlLk6GJQsqaUBKTNV-0" />
        <mxCell id="zkfFHV4jXpPFQw0GAbJ--0" value="AccommodationRenovation" style="swimlane;fontStyle=2;align=center;verticalAlign=top;childLayout=stackLayout;horizontal=1;startSize=26;horizontalStack=0;resizeParent=1;resizeLast=0;collapsible=1;marginBottom=0;rounded=0;shadow=0;strokeWidth=1;" parent="WIyWlLk6GJQsqaUBKTNV-1" vertex="1">
          <mxGeometry x="190" y="-113" width="234" height="387" as="geometry">
            <mxRectangle x="230" y="140" width="160" height="26" as="alternateBounds" />
          </mxGeometry>
        </mxCell>
        <mxCell id="zkfFHV4jXpPFQw0GAbJ--1" value="+Id : int" style="text;align=left;verticalAlign=top;spacingLeft=4;spacingRight=4;overflow=hidden;rotatable=0;points=[[0,0.5],[1,0.5]];portConstraint=eastwest;" parent="zkfFHV4jXpPFQw0GAbJ--0" vertex="1">
          <mxGeometry y="26" width="234" height="26" as="geometry" />
        </mxCell>
        <mxCell id="zkfFHV4jXpPFQw0GAbJ--2" value="+Accommodation: Accommdoation" style="text;align=left;verticalAlign=top;spacingLeft=4;spacingRight=4;overflow=hidden;rotatable=0;points=[[0,0.5],[1,0.5]];portConstraint=eastwest;rounded=0;shadow=0;html=0;" parent="zkfFHV4jXpPFQw0GAbJ--0" vertex="1">
          <mxGeometry y="52" width="234" height="26" as="geometry" />
        </mxCell>
        <mxCell id="zkfFHV4jXpPFQw0GAbJ--3" value="+Start: DateTime&#xa;" style="text;align=left;verticalAlign=top;spacingLeft=4;spacingRight=4;overflow=hidden;rotatable=0;points=[[0,0.5],[1,0.5]];portConstraint=eastwest;rounded=0;shadow=0;html=0;" parent="zkfFHV4jXpPFQw0GAbJ--0" vertex="1">
          <mxGeometry y="78" width="234" height="26" as="geometry" />
        </mxCell>
        <mxCell id="-NbkwlvzZSopZgZ9AZUB-4" value="+End: DateTime&#xa;" style="text;align=left;verticalAlign=top;spacingLeft=4;spacingRight=4;overflow=hidden;rotatable=0;points=[[0,0.5],[1,0.5]];portConstraint=eastwest;rounded=0;shadow=0;html=0;" parent="zkfFHV4jXpPFQw0GAbJ--0" vertex="1">
          <mxGeometry y="104" width="234" height="26" as="geometry" />
        </mxCell>
        <mxCell id="-NbkwlvzZSopZgZ9AZUB-5" value="+Description: string&#xa;" style="text;align=left;verticalAlign=top;spacingLeft=4;spacingRight=4;overflow=hidden;rotatable=0;points=[[0,0.5],[1,0.5]];portConstraint=eastwest;rounded=0;shadow=0;html=0;" parent="zkfFHV4jXpPFQw0GAbJ--0" vertex="1">
          <mxGeometry y="130" width="234" height="26" as="geometry" />
        </mxCell>
        <mxCell id="wz39yBtg1xBkKlrPDlyE-10" value="" style="endArrow=none;html=1;rounded=0;entryX=1;entryY=0;entryDx=0;entryDy=0;" edge="1" parent="zkfFHV4jXpPFQw0GAbJ--0" target="wz39yBtg1xBkKlrPDlyE-4">
          <mxGeometry width="50" height="50" relative="1" as="geometry">
            <mxPoint y="182" as="sourcePoint" />
            <mxPoint x="50" y="132" as="targetPoint" />
          </mxGeometry>
        </mxCell>
        <mxCell id="-NbkwlvzZSopZgZ9AZUB-3" value="+IsCancelled: bool=false&#xa;" style="text;align=left;verticalAlign=top;spacingLeft=4;spacingRight=4;overflow=hidden;rotatable=0;points=[[0,0.5],[1,0.5]];portConstraint=eastwest;rounded=0;shadow=0;html=0;" parent="zkfFHV4jXpPFQw0GAbJ--0" vertex="1">
          <mxGeometry y="156" width="234" height="26" as="geometry" />
        </mxCell>
        <mxCell id="wz39yBtg1xBkKlrPDlyE-0" value="" style="endArrow=none;html=1;rounded=0;" edge="1" parent="zkfFHV4jXpPFQw0GAbJ--0" target="wz39yBtg1xBkKlrPDlyE-4">
          <mxGeometry width="50" height="50" relative="1" as="geometry">
            <mxPoint y="182" as="sourcePoint" />
            <mxPoint x="216" y="182" as="targetPoint" />
          </mxGeometry>
        </mxCell>
        <mxCell id="wz39yBtg1xBkKlrPDlyE-4" value=" +IsTermAvailableForRenovation(startDate: DateTime, endDate: DateTime,&#xa; duration: int, reservation: AccommodationReservation): bool" style="text;whiteSpace=wrap;fontSize=6;" vertex="1" parent="zkfFHV4jXpPFQw0GAbJ--0">
          <mxGeometry y="182" width="234" height="25" as="geometry" />
        </mxCell>
        <mxCell id="wz39yBtg1xBkKlrPDlyE-8" value=" +GetAvailableTerms(Start: DateTime, End: DateTime, duration: int, reservations: List&lt;AccommodationReservation&gt;): List&lt;DateRange&gt;" style="text;whiteSpace=wrap;fontSize=6;" vertex="1" parent="zkfFHV4jXpPFQw0GAbJ--0">
          <mxGeometry y="207" width="234" height="27" as="geometry" />
        </mxCell>
        <mxCell id="wz39yBtg1xBkKlrPDlyE-9" value=" +FindAllAvailableTerms(accommodation: Accommodation, Start: DateTime, End: DateTime, Duration: int): List&lt;DateRange&gt;" style="text;whiteSpace=wrap;fontSize=6;" vertex="1" parent="zkfFHV4jXpPFQw0GAbJ--0">
          <mxGeometry y="234" width="234" height="27" as="geometry" />
        </mxCell>
        <mxCell id="wz39yBtg1xBkKlrPDlyE-11" value=" +GetAllValidRenovations(accommodation: Accommodation): List&lt;AccommodationRenovation&gt;" style="text;whiteSpace=wrap;fontSize=6;" vertex="1" parent="zkfFHV4jXpPFQw0GAbJ--0">
          <mxGeometry y="261" width="234" height="27" as="geometry" />
        </mxCell>
        <mxCell id="wz39yBtg1xBkKlrPDlyE-12" value=" +CancelRenovation(renovation: AccommodationRenovation): void" style="text;whiteSpace=wrap;fontSize=6;" vertex="1" parent="zkfFHV4jXpPFQw0GAbJ--0">
          <mxGeometry y="288" width="234" height="27" as="geometry" />
        </mxCell>
        <mxCell id="wz39yBtg1xBkKlrPDlyE-13" value="+ IsDatesIntertwine(StartFirst: DateTime, EndFirst: DateTime, StartSecond: DateTime, EndSecond: DateTime): bool" style="text;whiteSpace=wrap;fontSize=6;" vertex="1" parent="zkfFHV4jXpPFQw0GAbJ--0">
          <mxGeometry y="315" width="234" height="36" as="geometry" />
        </mxCell>
        <mxCell id="wz39yBtg1xBkKlrPDlyE-14" value=" +IsRenovationPossible(accommodation: Accommodation, StartSecond: DateTime, EndSecond: DateTime): bool" style="text;whiteSpace=wrap;fontSize=6;" vertex="1" parent="zkfFHV4jXpPFQw0GAbJ--0">
          <mxGeometry y="351" width="234" height="36" as="geometry" />
        </mxCell>
        <mxCell id="zkfFHV4jXpPFQw0GAbJ--17" value="Accommdoation" style="swimlane;fontStyle=0;align=center;verticalAlign=top;childLayout=stackLayout;horizontal=1;startSize=26;horizontalStack=0;resizeParent=1;resizeLast=0;collapsible=1;marginBottom=0;rounded=0;shadow=0;strokeWidth=1;" parent="WIyWlLk6GJQsqaUBKTNV-1" vertex="1">
          <mxGeometry x="508" y="120" width="170" height="213" as="geometry">
            <mxRectangle x="550" y="140" width="160" height="26" as="alternateBounds" />
          </mxGeometry>
        </mxCell>
        <mxCell id="zkfFHV4jXpPFQw0GAbJ--19" value="+Id : int" style="text;align=left;verticalAlign=top;spacingLeft=4;spacingRight=4;overflow=hidden;rotatable=0;points=[[0,0.5],[1,0.5]];portConstraint=eastwest;rounded=0;shadow=0;html=0;" parent="zkfFHV4jXpPFQw0GAbJ--17" vertex="1">
          <mxGeometry y="26" width="170" height="26" as="geometry" />
        </mxCell>
        <mxCell id="zkfFHV4jXpPFQw0GAbJ--21" value="+Type: AccommodationType" style="text;align=left;verticalAlign=top;spacingLeft=4;spacingRight=4;overflow=hidden;rotatable=0;points=[[0,0.5],[1,0.5]];portConstraint=eastwest;rounded=0;shadow=0;html=0;" parent="zkfFHV4jXpPFQw0GAbJ--17" vertex="1">
          <mxGeometry y="52" width="170" height="26" as="geometry" />
        </mxCell>
        <mxCell id="-NbkwlvzZSopZgZ9AZUB-8" value="+MaxGuests: int" style="text;align=left;verticalAlign=top;spacingLeft=4;spacingRight=4;overflow=hidden;rotatable=0;points=[[0,0.5],[1,0.5]];portConstraint=eastwest;rounded=0;shadow=0;html=0;" parent="zkfFHV4jXpPFQw0GAbJ--17" vertex="1">
          <mxGeometry y="78" width="170" height="26" as="geometry" />
        </mxCell>
        <mxCell id="-NbkwlvzZSopZgZ9AZUB-9" value="+MinReservationDays: int" style="text;align=left;verticalAlign=top;spacingLeft=4;spacingRight=4;overflow=hidden;rotatable=0;points=[[0,0.5],[1,0.5]];portConstraint=eastwest;rounded=0;shadow=0;html=0;" parent="zkfFHV4jXpPFQw0GAbJ--17" vertex="1">
          <mxGeometry y="104" width="170" height="26" as="geometry" />
        </mxCell>
        <mxCell id="-NbkwlvzZSopZgZ9AZUB-10" value="+CancellationDays: int" style="text;align=left;verticalAlign=top;spacingLeft=4;spacingRight=4;overflow=hidden;rotatable=0;points=[[0,0.5],[1,0.5]];portConstraint=eastwest;rounded=0;shadow=0;html=0;" parent="zkfFHV4jXpPFQw0GAbJ--17" vertex="1">
          <mxGeometry y="130" width="170" height="26" as="geometry" />
        </mxCell>
        <mxCell id="-NbkwlvzZSopZgZ9AZUB-7" value="+Pictures: List&lt;string&gt; " style="text;align=left;verticalAlign=top;spacingLeft=4;spacingRight=4;overflow=hidden;rotatable=0;points=[[0,0.5],[1,0.5]];portConstraint=eastwest;rounded=0;shadow=0;html=0;" parent="zkfFHV4jXpPFQw0GAbJ--17" vertex="1">
          <mxGeometry y="156" width="170" height="26" as="geometry" />
        </mxCell>
        <mxCell id="wz39yBtg1xBkKlrPDlyE-16" value="" style="endArrow=none;html=1;rounded=0;entryX=1;entryY=0;entryDx=0;entryDy=0;" edge="1" parent="zkfFHV4jXpPFQw0GAbJ--17" target="wz39yBtg1xBkKlrPDlyE-15">
          <mxGeometry width="50" height="50" relative="1" as="geometry">
            <mxPoint y="182" as="sourcePoint" />
            <mxPoint x="81" y="182" as="targetPoint" />
          </mxGeometry>
        </mxCell>
        <mxCell id="wz39yBtg1xBkKlrPDlyE-15" value="+ GetAllSorted(): List&lt;Accommodation&gt;" style="text;whiteSpace=wrap;fontSize=6;" vertex="1" parent="zkfFHV4jXpPFQw0GAbJ--17">
          <mxGeometry y="182" width="170" height="25" as="geometry" />
        </mxCell>
        <mxCell id="jrBvMISbflwZqs7c-j3e-2" value="Location" style="swimlane;fontStyle=0;align=center;verticalAlign=top;childLayout=stackLayout;horizontal=1;startSize=26;horizontalStack=0;resizeParent=1;resizeLast=0;collapsible=1;marginBottom=0;rounded=0;shadow=0;strokeWidth=1;" parent="WIyWlLk6GJQsqaUBKTNV-1" vertex="1">
          <mxGeometry x="710" y="340" width="160" height="104" as="geometry">
            <mxRectangle x="340" y="380" width="170" height="26" as="alternateBounds" />
          </mxGeometry>
        </mxCell>
        <mxCell id="jrBvMISbflwZqs7c-j3e-3" value="+Id : int" style="text;align=left;verticalAlign=top;spacingLeft=4;spacingRight=4;overflow=hidden;rotatable=0;points=[[0,0.5],[1,0.5]];portConstraint=eastwest;" parent="jrBvMISbflwZqs7c-j3e-2" vertex="1">
          <mxGeometry y="26" width="160" height="26" as="geometry" />
        </mxCell>
        <mxCell id="jrBvMISbflwZqs7c-j3e-6" value="+City: string" style="text;align=left;verticalAlign=top;spacingLeft=4;spacingRight=4;overflow=hidden;rotatable=0;points=[[0,0.5],[1,0.5]];portConstraint=eastwest;" parent="jrBvMISbflwZqs7c-j3e-2" vertex="1">
          <mxGeometry y="52" width="160" height="26" as="geometry" />
        </mxCell>
        <mxCell id="jrBvMISbflwZqs7c-j3e-5" value="+Country: string" style="text;align=left;verticalAlign=top;spacingLeft=4;spacingRight=4;overflow=hidden;rotatable=0;points=[[0,0.5],[1,0.5]];portConstraint=eastwest;" parent="jrBvMISbflwZqs7c-j3e-2" vertex="1">
          <mxGeometry y="78" width="160" height="26" as="geometry" />
        </mxCell>
        <mxCell id="jrBvMISbflwZqs7c-j3e-7" value="User" style="swimlane;fontStyle=0;align=center;verticalAlign=top;childLayout=stackLayout;horizontal=1;startSize=26;horizontalStack=0;resizeParent=1;resizeLast=0;collapsible=1;marginBottom=0;rounded=0;shadow=0;strokeWidth=1;" parent="WIyWlLk6GJQsqaUBKTNV-1" vertex="1">
          <mxGeometry x="150" y="330" width="160" height="130" as="geometry">
            <mxRectangle x="340" y="380" width="170" height="26" as="alternateBounds" />
          </mxGeometry>
        </mxCell>
        <mxCell id="jrBvMISbflwZqs7c-j3e-8" value="+Id : int" style="text;align=left;verticalAlign=top;spacingLeft=4;spacingRight=4;overflow=hidden;rotatable=0;points=[[0,0.5],[1,0.5]];portConstraint=eastwest;" parent="jrBvMISbflwZqs7c-j3e-7" vertex="1">
          <mxGeometry y="26" width="160" height="26" as="geometry" />
        </mxCell>
        <mxCell id="jrBvMISbflwZqs7c-j3e-11" value="+Username: string" style="text;align=left;verticalAlign=top;spacingLeft=4;spacingRight=4;overflow=hidden;rotatable=0;points=[[0,0.5],[1,0.5]];portConstraint=eastwest;" parent="jrBvMISbflwZqs7c-j3e-7" vertex="1">
          <mxGeometry y="52" width="160" height="26" as="geometry" />
        </mxCell>
        <mxCell id="jrBvMISbflwZqs7c-j3e-10" value="+Password: string" style="text;align=left;verticalAlign=top;spacingLeft=4;spacingRight=4;overflow=hidden;rotatable=0;points=[[0,0.5],[1,0.5]];portConstraint=eastwest;" parent="jrBvMISbflwZqs7c-j3e-7" vertex="1">
          <mxGeometry y="78" width="160" height="26" as="geometry" />
        </mxCell>
        <mxCell id="jrBvMISbflwZqs7c-j3e-12" value="+Type: UserType" style="text;align=left;verticalAlign=top;spacingLeft=4;spacingRight=4;overflow=hidden;rotatable=0;points=[[0,0.5],[1,0.5]];portConstraint=eastwest;" parent="jrBvMISbflwZqs7c-j3e-7" vertex="1">
          <mxGeometry y="104" width="160" height="26" as="geometry" />
        </mxCell>
        <mxCell id="jrBvMISbflwZqs7c-j3e-17" value="" style="group" parent="WIyWlLk6GJQsqaUBKTNV-1" vertex="1" connectable="0">
          <mxGeometry x="317" y="370" width="80" height="100" as="geometry" />
        </mxCell>
        <mxCell id="jrBvMISbflwZqs7c-j3e-13" value="" style="whiteSpace=wrap;html=1;aspect=fixed;" parent="jrBvMISbflwZqs7c-j3e-17" vertex="1">
          <mxGeometry width="80" height="80" as="geometry" />
        </mxCell>
        <mxCell id="jrBvMISbflwZqs7c-j3e-14" value="     &lt;&lt;enum&gt;&gt;&#xa;      UserType" style="text;align=left;verticalAlign=top;spacingLeft=4;spacingRight=4;overflow=hidden;rotatable=0;points=[[0,0.5],[1,0.5]];portConstraint=eastwest;rounded=0;shadow=0;html=0;fontSize=9;" parent="jrBvMISbflwZqs7c-j3e-17" vertex="1">
          <mxGeometry y="1" width="80" height="30" as="geometry" />
        </mxCell>
        <mxCell id="jrBvMISbflwZqs7c-j3e-15" value="" style="line;html=1;strokeWidth=1;align=left;verticalAlign=middle;spacingTop=-1;spacingLeft=3;spacingRight=3;rotatable=0;labelPosition=right;points=[];portConstraint=eastwest;" parent="jrBvMISbflwZqs7c-j3e-17" vertex="1">
          <mxGeometry y="31" width="80" height="8" as="geometry" />
        </mxCell>
        <mxCell id="jrBvMISbflwZqs7c-j3e-16" value="Tourist&#xa;Owner&#xa;Guest&#xa;TourGuide" style="text;whiteSpace=wrap;fontSize=9;" parent="jrBvMISbflwZqs7c-j3e-17" vertex="1">
          <mxGeometry x="5" y="30" width="70" height="70" as="geometry" />
        </mxCell>
        <mxCell id="jrBvMISbflwZqs7c-j3e-19" value="" style="group" parent="WIyWlLk6GJQsqaUBKTNV-1" vertex="1" connectable="0">
          <mxGeometry x="710" y="150" width="140" height="110" as="geometry" />
        </mxCell>
        <mxCell id="-NbkwlvzZSopZgZ9AZUB-18" value="apartment&lt;div style=&quot;font-size: 9px;&quot;&gt;house&lt;br style=&quot;font-size: 9px;&quot;&gt;&amp;nbsp;hut&lt;/div&gt;" style="whiteSpace=wrap;html=1;aspect=fixed;fontSize=9;" parent="jrBvMISbflwZqs7c-j3e-19" vertex="1">
          <mxGeometry width="110" height="110" as="geometry" />
        </mxCell>
        <mxCell id="jrBvMISbflwZqs7c-j3e-0" value="        &lt;&lt;enum&gt;&gt;&#xa;   AccommodationType" style="text;align=left;verticalAlign=top;spacingLeft=4;spacingRight=4;overflow=hidden;rotatable=0;points=[[0,0.5],[1,0.5]];portConstraint=eastwest;rounded=0;shadow=0;html=0;fontSize=9;" parent="jrBvMISbflwZqs7c-j3e-19" vertex="1">
          <mxGeometry width="140" height="40" as="geometry" />
        </mxCell>
        <mxCell id="jrBvMISbflwZqs7c-j3e-1" value="" style="line;html=1;strokeWidth=1;align=left;verticalAlign=middle;spacingTop=-1;spacingLeft=3;spacingRight=3;rotatable=0;labelPosition=right;points=[];portConstraint=eastwest;" parent="jrBvMISbflwZqs7c-j3e-19" vertex="1">
          <mxGeometry y="32" width="110" height="8" as="geometry" />
        </mxCell>
        <mxCell id="jrBvMISbflwZqs7c-j3e-24" value="" style="endArrow=diamondThin;endFill=0;endSize=24;html=1;rounded=0;exitX=0.315;exitY=0.003;exitDx=0;exitDy=0;exitPerimeter=0;" parent="WIyWlLk6GJQsqaUBKTNV-1" edge="1">
          <mxGeometry width="160" relative="1" as="geometry">
            <mxPoint x="758.4" y="340.00199999999995" as="sourcePoint" />
            <mxPoint x="678" y="319.69" as="targetPoint" />
            <Array as="points">
              <mxPoint x="758" y="319.69" />
            </Array>
          </mxGeometry>
        </mxCell>
        <mxCell id="jrBvMISbflwZqs7c-j3e-25" value="" style="html=1;startArrow=diamondThin;startFill=0;edgeStyle=elbowEdgeStyle;elbow=vertical;startSize=24;endArrow=none;endFill=0;rounded=0;strokeWidth=1;endSize=24;" parent="WIyWlLk6GJQsqaUBKTNV-1" edge="1">
          <mxGeometry width="160" relative="1" as="geometry">
            <mxPoint x="508" y="290" as="sourcePoint" />
            <mxPoint x="188" y="330" as="targetPoint" />
            <Array as="points">
              <mxPoint x="358" y="290" />
            </Array>
          </mxGeometry>
        </mxCell>
        <mxCell id="jrBvMISbflwZqs7c-j3e-26" value="1..1" style="text;html=1;align=center;verticalAlign=middle;resizable=0;points=[];autosize=1;strokeColor=none;fillColor=none;" parent="WIyWlLk6GJQsqaUBKTNV-1" vertex="1">
          <mxGeometry x="680" y="288" width="40" height="30" as="geometry" />
        </mxCell>
        <mxCell id="jrBvMISbflwZqs7c-j3e-27" value="0..*" style="text;html=1;align=center;verticalAlign=middle;resizable=0;points=[];autosize=1;strokeColor=none;fillColor=none;" parent="WIyWlLk6GJQsqaUBKTNV-1" vertex="1">
          <mxGeometry x="760" y="310" width="40" height="30" as="geometry" />
        </mxCell>
        <mxCell id="jrBvMISbflwZqs7c-j3e-28" value="0..*" style="text;html=1;align=center;verticalAlign=middle;resizable=0;points=[];autosize=1;strokeColor=none;fillColor=none;" parent="WIyWlLk6GJQsqaUBKTNV-1" vertex="1">
          <mxGeometry x="190" y="298" width="40" height="30" as="geometry" />
        </mxCell>
        <mxCell id="jrBvMISbflwZqs7c-j3e-29" value="1..1" style="text;html=1;align=center;verticalAlign=middle;resizable=0;points=[];autosize=1;strokeColor=none;fillColor=none;" parent="WIyWlLk6GJQsqaUBKTNV-1" vertex="1">
          <mxGeometry x="450" y="260" width="40" height="30" as="geometry" />
        </mxCell>
        <mxCell id="jrBvMISbflwZqs7c-j3e-30" value="&lt;font style=&quot;font-size: 7px;&quot;&gt;&amp;lt;&amp;lt;renovate&amp;gt;&amp;gt;&lt;/font&gt;" style="text;html=1;align=center;verticalAlign=middle;resizable=0;points=[];autosize=1;strokeColor=none;fillColor=none;fontSize=9;" parent="WIyWlLk6GJQsqaUBKTNV-1" vertex="1">
          <mxGeometry x="436.5" y="141" width="63" height="27" as="geometry" />
        </mxCell>
        <mxCell id="aVpmjBOgptcR2tEJsQUb-0" value="" style="endArrow=none;startArrow=diamondThin;endFill=0;startFill=1;html=1;verticalAlign=bottom;labelBackgroundColor=none;strokeWidth=1;startSize=14;endSize=8;rounded=0;jumpSize=5;" parent="WIyWlLk6GJQsqaUBKTNV-1" edge="1">
          <mxGeometry width="160" relative="1" as="geometry">
            <mxPoint x="423" y="171" as="sourcePoint" />
            <mxPoint x="508" y="170" as="targetPoint" />
            <Array as="points" />
          </mxGeometry>
        </mxCell>
        <mxCell id="aVpmjBOgptcR2tEJsQUb-3" value="&lt;font style=&quot;font-size: 9px;&quot;&gt;0..*&lt;/font&gt;" style="text;html=1;align=center;verticalAlign=middle;resizable=0;points=[];autosize=1;strokeColor=none;fillColor=none;" parent="WIyWlLk6GJQsqaUBKTNV-1" vertex="1">
          <mxGeometry x="477" y="168" width="36" height="27" as="geometry" />
        </mxCell>
        <mxCell id="aVpmjBOgptcR2tEJsQUb-4" value="&lt;font style=&quot;font-size: 9px;&quot;&gt;1..1&lt;/font&gt;" style="text;html=1;align=center;verticalAlign=middle;resizable=0;points=[];autosize=1;strokeColor=none;fillColor=none;" parent="WIyWlLk6GJQsqaUBKTNV-1" vertex="1">
          <mxGeometry x="450" y="168" width="36" height="27" as="geometry" />
        </mxCell>
      </root>
    </mxGraphModel>
  </diagram>
</mxfile>
